<svg width="32" height="32" viewBox="0 0 32 32" fill="none" xmlns="http://www.w3.org/2000/svg">
  <path fill-rule="evenodd" clip-rule="evenodd" transform="translate(-20 -57)" d="M35.9993 59.6666C28.626 59.6666 22.666 65.6266 22.666 73C22.666 80.3733 28.626 86.3333 35.9993 86.3333C43.3727 86.3333 49.3327 80.3733 49.3327 73C49.3327 65.6266 43.3727 59.6666 35.9993 59.6666ZM35.9993 83.6666C30.1193 83.6666 25.3327 78.88 25.3327 73C25.3327 67.12 30.1193 62.3333 35.9993 62.3333C41.8793 62.3333 46.666 67.12 46.666 73C46.666 78.88 41.8793 83.6666 35.9993 83.6666ZM35.9993 71.12L40.786 66.3333L42.666 68.2133L37.8793 73L42.666 77.7866L40.786 79.6666L35.9993 74.88L31.2127 79.6666L29.3327 77.7866L34.1193 73L29.3327 68.2133L31.2127 66.3333L35.9993 71.12Z" fill="white"/>
</svg>
